<svg xmlns="http://www.w3.org/2000/svg" xmlns:xlink="http://www.w3.org/1999/xlink" version="1.1" width="100" height="100" viewBox="0 0 100 100" xml:space="preserve">
<desc>Created with Fabric.js 3.5.0</desc>
<defs>
</defs>
<rect x="0" y="0" width="100%" height="100%" fill="rgba(255,255,255,0)"/>
<g transform="matrix(0.1118 0 0 0.1118 50.0141 50.0141)" id="190223">
<g style="" vector-effect="non-scaling-stroke">
		<g transform="matrix(30.3605 0 0 30.3605 18.7627 -306.429)" id="Capa_1">
<circle style="stroke: none; stroke-width: 1; stroke-dasharray: none; stroke-linecap: butt; stroke-dashoffset: 0; stroke-linejoin: miter; stroke-miterlimit: 4; is-custom-font: none; font-file-url: none; fill: rgb(167,114,125); fill-rule: nonzero; opacity: 1;" cx="0" cy="0" r="3.082"/>
</g>
		<g transform="matrix(30.3605 0 0 30.3605 18.7627 343.8633)" id="Capa_1">
<circle style="stroke: none; stroke-width: 1; stroke-dasharray: none; stroke-linecap: butt; stroke-dashoffset: 0; stroke-linejoin: miter; stroke-miterlimit: 4; is-custom-font: none; font-file-url: none; fill: rgb(167,114,125); fill-rule: nonzero; opacity: 1;" cx="0" cy="0" r="1.849"/>
</g>
		<g transform="matrix(30.3605 0 0 30.3605 -211.1576 -211.2183)" id="Capa_1">
<circle style="stroke: none; stroke-width: 1; stroke-dasharray: none; stroke-linecap: butt; stroke-dashoffset: 0; stroke-linejoin: miter; stroke-miterlimit: 4; is-custom-font: none; font-file-url: none; fill: rgb(167,114,125); fill-rule: nonzero; opacity: 1;" cx="0" cy="0" r="2.774"/>
</g>
		<g transform="matrix(30.3605 0 0 30.3605 248.6831 248.592)" id="Capa_1">
<circle style="stroke: none; stroke-width: 1; stroke-dasharray: none; stroke-linecap: butt; stroke-dashoffset: 0; stroke-linejoin: miter; stroke-miterlimit: 4; is-custom-font: none; font-file-url: none; fill: rgb(167,114,125); fill-rule: nonzero; opacity: 1;" cx="0" cy="0" r="1.541"/>
</g>
		<g transform="matrix(30.3605 0 0 30.3605 -306.3986 18.7324)" id="Capa_1">
<circle style="stroke: none; stroke-width: 1; stroke-dasharray: none; stroke-linecap: butt; stroke-dashoffset: 0; stroke-linejoin: miter; stroke-miterlimit: 4; is-custom-font: none; font-file-url: none; fill: rgb(167,114,125); fill-rule: nonzero; opacity: 1;" cx="0" cy="0" r="2.465"/>
</g>
		<g transform="matrix(30.3605 0 0 30.3605 343.8937 18.702)" id="Capa_1">
<circle style="stroke: none; stroke-width: 1; stroke-dasharray: none; stroke-linecap: butt; stroke-dashoffset: 0; stroke-linejoin: miter; stroke-miterlimit: 4; is-custom-font: none; font-file-url: none; fill: rgb(167,114,125); fill-rule: nonzero; opacity: 1;" cx="0" cy="0" r="1.232"/>
</g>
		<g transform="matrix(30.3605 0 0 30.3605 -211.1576 248.5957)" id="Capa_1">
<path style="stroke: none; stroke-width: 1; stroke-dasharray: none; stroke-linecap: butt; stroke-dashoffset: 0; stroke-linejoin: miter; stroke-miterlimit: 4; is-custom-font: none; font-file-url: none; fill: rgb(167,114,125); fill-rule: nonzero; opacity: 1;" transform=" translate(-6.219, -21.3631)" d="M 4.694 19.84 c -0.843 0.843 -0.843 2.207 0 3.05 c 0.842 0.843 2.208 0.843 3.05 0 c 0.843 -0.843 0.843 -2.207 0 -3.05 C 6.902 18.996 5.537 18.988 4.694 19.84 z" stroke-linecap="round"/>
</g>
		<g transform="matrix(30.3605 0 0 30.3605 248.6528 -211.2182)" id="Capa_1">
<circle style="stroke: none; stroke-width: 1; stroke-dasharray: none; stroke-linecap: butt; stroke-dashoffset: 0; stroke-linejoin: miter; stroke-miterlimit: 4; is-custom-font: none; font-file-url: none; fill: rgb(167,114,125); fill-rule: nonzero; opacity: 1;" cx="0" cy="0" r="0.924"/>
</g>
</g>
</g>
</svg>